<svg xmlns="http://www.w3.org/2000/svg" xmlns:xlink="http://www.w3.org/1999/xlink" preserveAspectRatio="xMidYMid" width="74" height="74" viewBox="0 0 74 74">
  <defs>
    <style>

      .cls-2 {
        fill: #ffffff;
      }
    </style>
  </defs>
  <path d="M73.040,73.703 C73.040,73.703 44.180,73.703 44.180,73.703 C43.683,73.703 43.278,73.299 43.278,72.804 C43.278,72.804 43.278,62.019 43.278,62.019 C43.278,61.524 43.683,61.120 44.180,61.120 C44.676,61.120 45.082,61.524 45.082,62.019 C45.082,62.019 45.082,68.310 45.082,68.310 C45.082,68.310 61.315,68.310 61.315,68.310 C61.315,68.310 61.315,51.233 61.315,51.233 C61.315,50.738 61.720,50.335 62.217,50.335 C62.217,50.335 68.530,50.335 68.530,50.335 C68.530,50.335 68.530,33.258 68.530,33.258 C68.530,32.763 68.935,32.359 69.432,32.359 C69.432,32.359 73.040,32.359 73.040,32.359 C73.536,32.359 73.941,32.763 73.941,33.258 C73.941,33.258 73.941,72.804 73.941,72.804 C73.941,73.299 73.536,73.703 73.040,73.703 ZM68.530,52.132 C68.530,52.132 63.119,52.132 63.119,52.132 C63.119,52.132 63.119,68.310 63.119,68.310 C63.119,68.310 68.530,68.310 68.530,68.310 C68.530,68.310 68.530,52.132 68.530,52.132 ZM72.138,34.157 C72.138,34.157 70.334,34.157 70.334,34.157 C70.334,34.157 70.334,69.209 70.334,69.209 C70.334,69.704 69.929,70.108 69.432,70.108 C69.432,70.108 45.082,70.108 45.082,70.108 C45.082,70.108 45.082,71.905 45.082,71.905 C45.082,71.905 72.138,71.905 72.138,71.905 C72.138,71.905 72.138,34.157 72.138,34.157 ZM73.040,19.776 C73.040,19.776 69.432,19.776 69.432,19.776 C68.935,19.776 68.530,19.373 68.530,18.878 C68.530,18.878 68.530,5.396 68.530,5.396 C68.530,5.396 61.315,5.396 61.315,5.396 C61.315,5.396 61.315,22.473 61.315,22.473 C61.315,22.968 60.910,23.371 60.413,23.371 C60.413,23.371 45.983,23.371 45.983,23.371 C45.487,23.371 45.082,22.968 45.082,22.473 C45.082,22.473 45.082,5.396 45.082,5.396 C45.082,5.396 37.867,5.396 37.867,5.396 C37.867,5.396 37.867,26.068 37.867,26.068 C37.867,26.306 37.771,26.535 37.602,26.703 C37.602,26.703 33.995,30.298 33.995,30.298 C33.643,30.649 33.072,30.649 32.720,30.298 C32.367,29.947 32.367,29.378 32.720,29.027 C32.720,29.027 36.063,25.696 36.063,25.696 C36.063,25.696 36.063,5.396 36.063,5.396 C36.063,5.396 29.750,5.396 29.750,5.396 C29.251,5.396 28.848,4.992 28.848,4.497 C28.848,4.497 28.848,0.902 28.848,0.902 C28.848,0.407 29.251,0.003 29.750,0.003 C29.750,0.003 73.040,0.003 73.040,0.003 C73.536,0.003 73.941,0.407 73.941,0.902 C73.941,0.902 73.941,18.878 73.941,18.878 C73.941,19.373 73.536,19.776 73.040,19.776 ZM46.885,21.574 C46.885,21.574 59.511,21.574 59.511,21.574 C59.511,21.574 59.511,5.396 59.511,5.396 C59.511,5.396 46.885,5.396 46.885,5.396 C46.885,5.396 46.885,21.574 46.885,21.574 ZM72.138,1.801 C72.138,1.801 30.652,1.801 30.652,1.801 C30.652,1.801 30.652,3.598 30.652,3.598 C30.652,3.598 69.432,3.598 69.432,3.598 C69.929,3.598 70.334,4.002 70.334,4.497 C70.334,4.497 70.334,17.979 70.334,17.979 C70.334,17.979 72.138,17.979 72.138,17.979 C72.138,17.979 72.138,1.801 72.138,1.801 ZM26.142,34.157 C26.142,34.157 18.927,34.157 18.927,34.157 C18.429,34.157 18.025,33.753 18.025,33.258 C18.025,33.258 18.025,18.878 18.025,18.878 C18.025,18.382 18.429,17.979 18.927,17.979 C18.927,17.979 26.142,17.979 26.142,17.979 C26.641,17.979 27.044,18.382 27.044,18.878 C27.044,18.878 27.044,33.258 27.044,33.258 C27.044,33.753 26.641,34.157 26.142,34.157 ZM25.240,19.776 C25.240,19.776 19.829,19.776 19.829,19.776 C19.829,19.776 19.829,32.359 19.829,32.359 C19.829,32.359 25.240,32.359 25.240,32.359 C25.240,32.359 25.240,19.776 25.240,19.776 ZM7.203,47.638 C7.203,45.160 9.225,43.144 11.712,43.144 C14.199,43.144 16.222,45.160 16.222,47.638 C16.222,50.117 14.199,52.132 11.712,52.132 C9.225,52.132 7.203,50.117 7.203,47.638 ZM14.418,47.638 C14.418,46.153 13.204,44.942 11.712,44.942 C10.220,44.942 9.007,46.153 9.007,47.638 C9.007,49.123 10.220,50.335 11.712,50.335 C13.204,50.335 14.418,49.123 14.418,47.638 ZM15.320,12.586 C15.320,12.586 12.614,12.586 12.614,12.586 C12.614,12.586 12.614,39.549 12.614,39.549 C12.614,39.549 36.063,39.549 36.063,39.549 C36.063,39.549 36.063,33.258 36.063,33.258 C36.063,32.763 36.468,32.359 36.965,32.359 C37.461,32.359 37.867,32.763 37.867,33.258 C37.867,33.258 37.867,39.549 37.867,39.549 C37.867,39.549 44.180,39.549 44.180,39.549 C44.676,39.549 45.082,39.953 45.082,40.448 C45.082,40.448 45.082,54.829 45.082,54.829 C45.082,55.324 44.676,55.727 44.180,55.727 C43.683,55.727 43.278,55.324 43.278,54.829 C43.278,54.829 43.278,41.347 43.278,41.347 C43.278,41.347 30.652,41.347 30.652,41.347 C30.652,41.347 30.652,44.043 30.652,44.043 C30.652,44.538 30.248,44.942 29.750,44.942 C29.251,44.942 28.848,44.538 28.848,44.043 C28.848,44.043 28.848,41.347 28.848,41.347 C28.848,41.347 5.399,41.347 5.399,41.347 C5.399,41.347 5.399,53.930 5.399,53.930 C5.399,53.930 28.848,53.930 28.848,53.930 C28.848,53.930 28.848,51.606 28.848,51.606 C28.848,51.606 25.505,48.274 25.505,48.274 C25.152,47.923 25.152,47.354 25.505,47.003 C25.857,46.652 26.428,46.652 26.780,47.003 C26.780,47.003 30.387,50.598 30.387,50.598 C30.556,50.766 30.652,50.995 30.652,51.233 C30.652,51.233 30.652,58.424 30.652,58.424 C30.652,58.919 30.248,59.322 29.750,59.322 C29.251,59.322 28.848,58.919 28.848,58.424 C28.848,58.424 28.848,55.727 28.848,55.727 C28.848,55.727 5.399,55.727 5.399,55.727 C5.399,55.727 5.399,61.120 5.399,61.120 C5.399,61.120 22.535,61.120 22.535,61.120 C23.033,61.120 23.437,61.524 23.437,62.019 C23.437,62.019 23.437,68.310 23.437,68.310 C23.437,68.310 28.848,68.310 28.848,68.310 C28.848,68.310 28.848,65.986 28.848,65.986 C28.848,65.986 25.505,62.654 25.505,62.654 C25.152,62.303 25.152,61.734 25.505,61.383 C25.857,61.032 26.428,61.032 26.780,61.383 C26.780,61.383 30.387,64.978 30.387,64.978 C30.556,65.147 30.652,65.375 30.652,65.614 C30.652,65.614 30.652,68.310 30.652,68.310 C30.652,68.310 36.965,68.310 36.965,68.310 C37.461,68.310 37.867,68.714 37.867,69.209 C37.867,69.209 37.867,72.804 37.867,72.804 C37.867,73.299 37.461,73.703 36.965,73.703 C36.965,73.703 0.890,73.703 0.890,73.703 C0.391,73.703 -0.012,73.299 -0.012,72.804 C-0.012,72.804 -0.012,0.902 -0.012,0.902 C-0.012,0.407 0.391,0.003 0.890,0.003 C0.890,0.003 15.320,0.003 15.320,0.003 C15.818,0.003 16.222,0.407 16.222,0.902 C16.222,0.902 16.222,11.687 16.222,11.687 C16.222,12.182 15.818,12.586 15.320,12.586 ZM10.810,39.549 C10.810,39.549 10.810,34.157 10.810,34.157 C10.810,34.157 5.399,34.157 5.399,34.157 C5.399,34.157 5.399,39.549 5.399,39.549 C5.399,39.549 10.810,39.549 10.810,39.549 ZM10.810,32.359 C10.810,32.359 10.810,26.966 10.810,26.966 C10.810,26.966 5.399,26.966 5.399,26.966 C5.399,26.966 5.399,32.359 5.399,32.359 C5.399,32.359 10.810,32.359 10.810,32.359 ZM21.633,62.918 C21.633,62.918 5.399,62.918 5.399,62.918 C5.399,62.918 5.399,68.310 5.399,68.310 C5.399,68.310 21.633,68.310 21.633,68.310 C21.633,68.310 21.633,62.918 21.633,62.918 ZM14.418,1.801 C14.418,1.801 1.792,1.801 1.792,1.801 C1.792,1.801 1.792,71.905 1.792,71.905 C1.792,71.905 36.063,71.905 36.063,71.905 C36.063,71.905 36.063,70.108 36.063,70.108 C36.063,70.108 4.497,70.108 4.497,70.108 C3.999,70.108 3.595,69.704 3.595,69.209 C3.595,69.209 3.595,4.497 3.595,4.497 C3.595,4.002 3.999,3.598 4.497,3.598 C4.497,3.598 14.418,3.598 14.418,3.598 C14.418,3.598 14.418,1.801 14.418,1.801 ZM14.418,5.396 C14.418,5.396 5.399,5.396 5.399,5.396 C5.399,5.396 5.399,25.169 5.399,25.169 C5.399,25.169 10.810,25.169 10.810,25.169 C10.810,25.169 10.810,11.687 10.810,11.687 C10.810,11.192 11.214,10.789 11.712,10.789 C11.712,10.789 14.418,10.789 14.418,10.789 C14.418,10.789 14.418,5.396 14.418,5.396 Z" id="path-1" class="cls-2" fill-rule="evenodd"/>
</svg>

