<svg xmlns="http://www.w3.org/2000/svg" xmlns:xlink="http://www.w3.org/1999/xlink" preserveAspectRatio="xMidYMid" width="75" height="74" viewBox="0 0 75 74">
  <defs>
    <style>

      .cls-2 {
        fill: #ffffff;
      }
    </style>
  </defs>
  <path d="M73.049,0.000 C73.049,0.000 0.900,0.000 0.900,0.000 C0.401,0.000 -0.002,0.404 -0.002,0.899 C-0.002,0.899 -0.002,72.801 -0.002,72.801 C-0.002,73.296 0.401,73.700 0.900,73.700 C0.900,73.700 73.049,73.700 73.049,73.700 C73.548,73.700 73.951,73.296 73.951,72.801 C73.951,72.801 73.951,0.899 73.951,0.899 C73.951,0.404 73.548,0.000 73.049,0.000 ZM59.442,1.798 C59.442,1.798 31.272,29.896 31.272,29.896 C31.272,29.896 21.150,19.809 21.150,19.809 C21.150,19.809 39.224,1.798 39.224,1.798 C39.224,1.798 59.442,1.798 59.442,1.798 ZM51.230,12.548 C51.230,12.548 61.359,22.645 61.359,22.645 C61.359,22.645 22.719,61.152 22.719,61.152 C22.719,61.152 12.591,51.055 12.591,51.055 C12.591,51.055 51.230,12.548 51.230,12.548 ZM13.836,1.798 C13.836,1.798 8.458,7.160 8.458,7.160 C8.458,7.160 3.077,1.798 3.077,1.798 C3.077,1.798 13.836,1.798 13.836,1.798 ZM1.802,3.068 C1.802,3.068 7.183,8.430 7.183,8.430 C7.183,8.430 1.802,13.795 1.802,13.795 C1.802,13.795 1.802,3.068 1.802,3.068 ZM1.802,16.336 C1.802,16.336 16.390,1.798 16.390,1.798 C16.390,1.798 36.673,1.798 36.673,1.798 C36.673,1.798 19.237,19.173 19.237,19.173 C19.237,19.173 1.802,36.548 1.802,36.548 C1.802,36.548 1.802,16.336 1.802,16.336 ZM1.802,39.090 C1.802,39.090 19.875,21.080 19.875,21.080 C19.875,21.080 29.997,31.167 29.997,31.167 C29.997,31.167 1.802,59.242 1.802,59.242 C1.802,59.242 1.802,39.090 1.802,39.090 ZM1.802,71.902 C1.802,71.902 1.802,61.775 1.802,61.775 C1.802,61.775 11.305,52.316 11.305,52.316 C11.305,52.316 21.452,62.431 21.452,62.431 C21.452,62.431 11.960,71.902 11.960,71.902 C11.960,71.902 1.802,71.902 1.802,71.902 ZM14.507,71.902 C14.507,71.902 42.677,43.804 42.677,43.804 C42.677,43.804 52.799,53.891 52.799,53.891 C52.799,53.891 34.725,71.902 34.725,71.902 C34.725,71.902 14.507,71.902 14.507,71.902 ZM60.110,71.902 C60.110,71.902 65.491,66.540 65.491,66.540 C65.491,66.540 70.872,71.902 70.872,71.902 C70.872,71.902 60.110,71.902 60.110,71.902 ZM72.148,70.631 C72.148,70.631 66.767,65.269 66.767,65.269 C66.767,65.269 72.148,59.907 72.148,59.907 C72.148,59.907 72.148,70.631 72.148,70.631 ZM72.148,57.364 C72.148,57.364 57.563,71.902 57.563,71.902 C57.563,71.902 37.276,71.902 37.276,71.902 C37.276,71.902 72.148,37.152 72.148,37.152 C72.148,37.152 72.148,57.364 72.148,57.364 ZM72.148,34.610 C72.148,34.610 54.074,52.620 54.074,52.620 C54.074,52.620 43.953,42.533 43.953,42.533 C43.953,42.533 72.148,14.458 72.148,14.458 C72.148,14.458 72.148,34.610 72.148,34.610 ZM72.148,11.924 C72.148,11.924 62.644,21.384 62.644,21.384 C62.644,21.384 52.497,11.268 52.497,11.268 C52.497,11.268 61.989,1.798 61.989,1.798 C61.989,1.798 72.148,1.798 72.148,1.798 C72.148,1.798 72.148,11.924 72.148,11.924 Z" id="path-1" class="cls-2" fill-rule="evenodd"/>
</svg>

