<svg xmlns="http://www.w3.org/2000/svg" xmlns:xlink="http://www.w3.org/1999/xlink" preserveAspectRatio="xMidYMid" width="74" height="74" viewBox="0 0 74 74">
  <defs>
    <style>

      .cls-2 {
        fill: #ffffff;
      }
    </style>
  </defs>
  <path d="M66.588,8.421 C66.588,8.421 66.588,65.066 66.588,65.066 C66.588,65.066 73.522,71.977 73.522,71.977 C73.874,72.327 73.874,72.895 73.522,73.245 C73.171,73.595 72.601,73.595 72.250,73.245 C72.250,73.245 65.315,66.334 65.315,66.334 C65.315,66.334 8.475,66.334 8.475,66.334 C8.475,66.334 1.541,73.245 1.541,73.245 C1.189,73.595 0.620,73.595 0.268,73.245 C-0.083,72.895 -0.083,72.327 0.268,71.977 C0.268,71.977 7.203,65.066 7.203,65.066 C7.203,65.066 7.203,8.421 7.203,8.421 C7.203,8.421 0.268,1.511 0.268,1.511 C-0.083,1.160 -0.083,0.593 0.268,0.243 C0.620,-0.108 1.189,-0.108 1.541,0.243 C1.541,0.243 8.475,7.153 8.475,7.153 C8.475,7.153 65.315,7.153 65.315,7.153 C65.315,7.153 72.250,0.243 72.250,0.243 C72.601,-0.108 73.171,-0.108 73.522,0.243 C73.874,0.593 73.874,1.160 73.522,1.511 C73.522,1.511 66.588,8.421 66.588,8.421 ZM64.788,8.947 C64.788,8.947 9.002,8.947 9.002,8.947 C9.002,8.947 9.002,64.541 9.002,64.541 C9.002,64.541 64.788,64.541 64.788,64.541 C64.788,64.541 64.788,8.947 64.788,8.947 ZM18.724,26.327 C18.724,26.327 29.219,26.327 29.219,26.327 C29.219,26.327 36.200,19.375 36.200,19.375 C36.554,19.022 37.127,19.022 37.481,19.375 C37.481,19.375 44.462,26.327 44.462,26.327 C44.462,26.327 54.957,26.327 54.957,26.327 C55.457,26.327 55.862,26.730 55.862,27.229 C55.862,27.229 55.862,48.879 55.862,48.879 C55.862,49.375 55.457,49.781 54.957,49.781 C54.957,49.781 18.724,49.781 18.724,49.781 C18.223,49.781 17.818,49.375 17.818,48.879 C17.818,48.879 17.818,27.229 17.818,27.229 C17.818,26.730 18.223,26.327 18.724,26.327 ZM36.840,21.288 C36.840,21.288 31.780,26.327 31.780,26.327 C31.780,26.327 41.900,26.327 41.900,26.327 C41.900,26.327 36.840,21.288 36.840,21.288 ZM54.051,47.977 C54.051,47.977 54.051,42.036 54.051,42.036 C54.051,42.036 47.710,35.721 47.710,35.721 C47.710,35.721 38.121,45.270 38.121,45.270 C38.121,45.270 40.839,47.977 40.839,47.977 C40.839,47.977 54.051,47.977 54.051,47.977 ZM38.277,47.977 C38.277,47.977 33.217,42.938 33.217,42.938 C33.217,42.938 28.157,47.977 28.157,47.977 C28.157,47.977 38.277,47.977 38.277,47.977 ZM19.630,47.977 C19.630,47.977 25.595,47.977 25.595,47.977 C25.595,47.977 28.313,45.270 28.313,45.270 C28.313,45.270 22.347,39.329 22.347,39.329 C22.347,39.329 19.630,42.036 19.630,42.036 C19.630,42.036 19.630,47.977 19.630,47.977 ZM19.630,39.484 C19.630,39.484 21.707,37.416 21.707,37.416 C22.061,37.064 22.634,37.064 22.988,37.416 C22.988,37.416 29.594,43.995 29.594,43.995 C29.594,43.995 32.577,41.024 32.577,41.024 C32.930,40.672 33.504,40.672 33.857,41.024 C33.857,41.024 36.840,43.995 36.840,43.995 C36.840,43.995 47.070,33.808 47.070,33.808 C47.423,33.455 47.997,33.455 48.350,33.808 C48.350,33.808 54.051,39.484 54.051,39.484 C54.051,39.484 54.051,28.131 54.051,28.131 C54.051,28.131 19.630,28.131 19.630,28.131 C19.630,28.131 19.630,39.484 19.630,39.484 ZM31.405,38.956 C28.907,38.956 26.876,36.933 26.876,34.445 C26.876,31.958 28.907,29.935 31.405,29.935 C33.903,29.935 35.934,31.958 35.934,34.445 C35.934,36.933 33.903,38.956 31.405,38.956 ZM31.405,31.739 C29.907,31.739 28.688,32.953 28.688,34.445 C28.688,35.936 29.907,37.152 31.405,37.152 C32.904,37.152 34.123,35.936 34.123,34.445 C34.123,32.953 32.904,31.739 31.405,31.739 Z" id="path-1" class="cls-2" fill-rule="evenodd"/>
</svg>

